PathFileType	4	(X/Y/Z)	SUBJ32_1_walk_RCNL2025.trc
DataRate	CameraRate	NumFrames	NumMarkers	Units	OrigDataRate	OrigDataStartFrame	OrigNumFrames
100	100	5	25	mm	100	42	331
Frame#	Time	R_Shoulder			L_Shoulder			C7			J_Notch			R_Elbow			L_Elbow			R_Wrist			L_Wrist			R_Asis			L_Asis			Sacral			Thoracic			Sternum			R_Thigh_Lateral			R_Knee_Lateral			R_Shank_Lateral			R_Ankle_Lateral			R_Heel			R_Toe			L_Thigh_Lateral			L_Knee_Lateral			L_Shank_Lateral			L_Ankle_Lateral			L_Heel			L_Toe		
		X1	Y1	Z1	X2	Y2	Z2	X3	Y3	Z3	X4	Y4	Z4	X5	Y5	Z5	X6	Y6	Z6	X7	Y7	Z7	X8	Y8	Z8	X9	Y9	Z9	X10	Y10	Z10	X11	Y11	Z11	X12	Y12	Z12	X13	Y13	Z13	X14	Y14	Z14	X15	Y15	Z15	X16	Y16	Z16	X17	Y17	Z17	X18	Y18	Z18	X19	Y19	Z19	X20	Y20	Z20	X21	Y21	Z21	X22	Y22	Z22	X23	Y23	Z23	X24	Y24	Z24	X25	Y25	Z25
42	0.41000000	-758.534241	1346.869995	-44.390808	-805.961853	1332.499634	-414.437256	-810.414856	1415.636230	-220.464584	-684.747437	1315.494995	-236.760300	-809.811951	1020.902466	80.101524	-932.688416	1023.832153	-466.081177	-696.479828	798.846039	97.074932	-936.064209	763.643951	-479.812347	-716.029236	879.505615	-102.430733	-706.960144	884.203979	-352.699677	-911.409973	927.941345	-227.259247	-911.656311	1188.361694	-211.724365	-620.761292	1089.536499	-228.643585	-880.142639	536.828979	-12.970348	-901.186340	445.037628	-52.096302	-998.464661	322.100067	18.366198	-1149.545776	151.429016	-86.873901	-1193.744507	184.140213	-134.839401	-1078.768555	50.806705	-131.559677	-694.896729	552.323120	-447.208649	-661.960022	466.570038	-399.099548	-635.747375	243.939835	-420.211365	-628.316895	57.727295	-328.142548	-675.102966	49.078407	-278.945435	-490.723450	43.177044	-302.292236
43	0.42000000	-745.387756	1349.270386	-46.642399	-794.249878	1334.221924	-416.408325	-797.699829	1417.905518	-222.651825	-672.566040	1316.989502	-239.095169	-799.036194	1023.582947	77.567139	-919.076843	1024.789185	-468.039307	-690.295135	799.209869	95.816483	-919.474792	764.653015	-482.217896	-703.455933	881.515259	-104.512611	-695.468079	886.315918	-354.907593	-899.417542	929.570435	-228.275650	-899.752869	1190.219604	-212.771652	-608.808960	1091.639893	-230.865753	-862.333496	536.691040	-13.508492	-881.830505	445.462646	-52.040104	-982.326355	326.045654	18.569311	-1136.934570	159.015976	-86.569618	-1178.703979	194.141464	-134.905777	-1073.359253	52.568584	-131.825134	-687.156372	552.783813	-448.386475	-654.136353	466.915894	-400.542084	-631.819031	243.641479	-420.650116	-627.662354	58.095375	-328.045013	-675.000610	49.483227	-278.953400	-490.269928	42.724693	-301.697266
44	0.43000000	-732.368286	1351.609253	-48.859955	-782.507324	1336.067993	-418.348358	-785.071411	1420.127930	-224.766479	-660.468323	1318.480713	-241.352875	-788.327454	1026.279541	75.169212	-905.557434	1025.889771	-470.046875	-684.160126	799.710876	94.567078	-902.505646	765.845886	-484.690643	-691.161621	883.571533	-106.440422	-684.097595	888.199097	-356.957489	-887.587219	931.234680	-229.433594	-887.927551	1192.075562	-213.984573	-597.015442	1093.635376	-232.962418	-844.020081	536.478516	-14.011853	-861.859131	445.811707	-52.063427	-965.123047	329.762878	18.693432	-1123.170532	166.619598	-86.419350	-1162.602173	203.808853	-135.189896	-1066.420532	55.040241	-131.934982	-680.174133	552.930176	-449.284180	-647.176025	466.940430	-401.740417	-628.603027	243.155685	-420.827209	-627.050476	58.425125	-327.823761	-674.926086	49.822308	-278.780914	-489.841278	42.476189	-301.140930
45	0.44000000	-719.536926	1353.825317	-51.023399	-770.709900	1337.968628	-420.258423	-772.532227	1422.270142	-226.825851	-648.454285	1319.947021	-243.521500	-777.697449	1028.920044	72.939087	-892.142151	1027.076416	-472.125702	-677.997101	800.301727	93.335876	-885.199646	767.175110	-487.213440	-679.124512	885.591553	-108.202209	-672.862183	889.843506	-358.812744	-875.927185	932.919617	-230.677750	-876.170105	1193.902222	-215.393143	-585.356140	1095.480713	-234.950577	-825.309753	536.227844	-14.525773	-841.378174	446.115753	-52.209663	-946.836304	333.097778	18.696678	-1108.252075	174.066437	-86.457108	-1145.604614	212.876709	-135.714920	-1057.583862	58.199131	-131.837509	-673.660095	552.917236	-449.990234	-640.902771	466.752197	-402.717712	-625.931458	242.572479	-420.816833	-626.489929	58.700649	-327.516327	-674.852173	50.103065	-278.492950	-489.422668	42.344406	-300.632751
46	0.45000000	-706.946289	1355.882202	-53.108845	-758.842285	1339.867554	-422.133362	-760.082703	1424.317749	-228.838974	-636.519775	1321.374756	-245.589279	-767.157837	1031.450562	70.894798	-878.823853	1028.300903	-474.296265	-671.749847	800.941101	92.128498	-867.588165	768.604645	-489.777328	-667.296387	887.506226	-109.805023	-661.781921	891.256897	-360.463928	-864.441162	934.609863	-231.937805	-864.478271	1195.685547	-217.002380	-573.813538	1097.158325	-236.848511	-806.315186	535.990601	-15.106956	-820.497375	446.436066	-52.518181	-927.518677	335.963074	18.534822	-1092.197876	181.155289	-86.714432	-1127.871582	221.081238	-136.507751	-1046.486816	61.939880	-131.459579	-667.350769	552.881104	-450.604950	-635.128479	466.463654	-403.512482	-623.647156	241.988281	-420.704651	-625.994263	58.917648	-327.167450	-674.758057	50.335640	-278.158661	-489.014496	42.270592	-300.183502
